<?xml version="1.0" standalone="no"?>
<!DOCTYPE svg PUBLIC "-//W3C//DTD SVG 1.1//EN" "http://www.w3.org/Graphics/SVG/1.1/DTD/svg11.dtd" >
<svg xmlns="http://www.w3.org/2000/svg">
<metadata></metadata>
<defs>
<font id="webfontregular" horiz-adv-x="1224" >
<font-face units-per-em="1296" ascent="1008" descent="-288" />
<missing-glyph horiz-adv-x="500" />
<glyph unicode="&#x25fc;" horiz-adv-x="500" d="M0 0v0v0v0v0z" />
<glyph unicode="&#xf000;" horiz-adv-x="648" d="M648 401l-324 -282l-324 282l35 40l289 -251l289 251z" />
<glyph unicode="&#xf001;" d="M1176 562q-47 110 -131.5 194.5t-194.5 131.5q-114 48 -238 48t-238 -48q-110 -47 -194.5 -131.5t-131.5 -194.5q-48 -114 -48 -238t48 -238q47 -110 131.5 -194.5t194.5 -131.5q114 -48 238 -48t238 48q110 47 194.5 131.5t131.5 194.5q48 114 48 238t-48 238zM1126 107 q-43 -100 -120 -177t-177 -120q-104 -43 -217 -43t-217 43q-100 43 -177 120t-120 177q-43 104 -43 217t43 217q43 100 120 177t177 120q104 43 217 43t217 -43q100 -43 177 -120t120 -177q43 -104 43 -217t-43 -217zM936 401l-324 -282l-324 282l35 40l289 -251l289 251z " />
<glyph unicode="&#xf002;" horiz-adv-x="360" d="M305 647l-293 -336l293 -337l43 37l-261 300l261 299z" />
<glyph unicode="&#xf003;" d="M1176 562q-47 110 -131.5 194.5t-194.5 131.5q-114 48 -238 48t-238 -48q-110 -47 -194.5 -131.5t-131.5 -194.5q-48 -114 -48 -238t48 -238q47 -110 131.5 -194.5t194.5 -131.5q114 -48 238 -48t238 48q110 47 194.5 131.5t131.5 194.5q48 114 48 238t-48 238zM1126 107 q-43 -100 -120 -177t-177 -120q-104 -43 -217 -43t-217 43q-100 43 -177 120t-120 177q-43 104 -43 217t43 217q43 100 120 177t177 120q104 43 217 43t217 -43q100 -43 177 -120t120 -177q43 -104 43 -217t-43 -217zM535 648l282 -324l-282 -324l-40 35l251 289l-251 288z " />
<glyph unicode="&#xf004;" horiz-adv-x="360" d="M55 647l293 -336l-293 -337l-43 37l261 300l-261 299z" />
<glyph unicode="&#xf005;" d="M1176 562q-47 110 -131.5 194.5t-194.5 131.5q-114 48 -238 48t-238 -48q-110 -47 -194.5 -131.5t-131.5 -194.5q-48 -114 -48 -238t48 -238q47 -110 131.5 -194.5t194.5 -131.5q114 -48 238 -48t238 48q110 47 194.5 131.5t131.5 194.5q48 114 48 238t-48 238zM1126 107 q-43 -100 -120 -177t-177 -120q-104 -43 -217 -43t-217 43q-100 43 -177 120t-120 177q-43 104 -43 217t43 217q43 100 120 177t177 120q104 43 217 43t217 -43q100 -43 177 -120t120 -177q43 -104 43 -217t-43 -217zM689 0l-283 324l283 324l40 -36l-251 -288l251 -289z " />
<glyph unicode="&#xf006;" horiz-adv-x="648" d="M0 247l324 283l324 -283l-35 -40l-289 251l-289 -251z" />
<glyph unicode="&#xf007;" d="M1176 562q-47 110 -131.5 194.5t-194.5 131.5q-114 48 -238 48t-238 -48q-110 -47 -194.5 -131.5t-131.5 -194.5q-48 -114 -48 -238t48 -238q47 -110 131.5 -194.5t194.5 -131.5q114 -48 238 -48t238 48q110 47 194.5 131.5t131.5 194.5q48 114 48 238t-48 238zM1126 107 q-43 -100 -120 -177t-177 -120q-104 -43 -217 -43t-217 43q-100 43 -177 120t-120 177q-43 104 -43 217t43 217q43 100 120 177t177 120q104 43 217 43t217 -43q100 -43 177 -120t120 -177q43 -104 43 -217t-43 -217zM288 247l324 283l324 -283l-35 -40l-289 251l-289 -251z " />
<glyph unicode="&#xf008;" d="M1176 562q-47 110 -131.5 194.5t-194.5 131.5q-114 48 -238 48t-238 -48q-110 -47 -194.5 -131.5t-131.5 -194.5q-48 -114 -48 -238t48 -238q47 -110 131.5 -194.5t194.5 -131.5q114 -48 238 -48t238 48q110 47 194.5 131.5t131.5 194.5q48 114 48 238t-48 238zM1126 107 q-43 -100 -120 -177t-177 -120q-104 -43 -217 -43t-217 43q-100 43 -177 120t-120 177q-43 104 -43 217t43 217q43 100 120 177t177 120q104 43 217 43t217 -43q100 -43 177 -120t120 -177q43 -104 43 -217t-43 -217zM864 538l-39 39l-213 -214l-214 214l-38 -39l214 -213 l-214 -214l38 -38l214 214l213 -214l39 38l-214 214z" />
<glyph unicode="&#xf009;" horiz-adv-x="1296" d="M1296 -273l-633 634l633 632l-15 15l-633 -632l-633 632l-15 -15l633 -632l-633 -634l15 -15l633 634l633 -634z" />
<glyph unicode="&#xf010;" d="M1176 562q-47 110 -131.5 194.5t-194.5 131.5q-114 48 -238 48t-238 -48q-110 -47 -194.5 -131.5t-131.5 -194.5q-48 -114 -48 -238t48 -238q47 -110 131.5 -194.5t194.5 -131.5q114 -48 238 -48t238 48q110 47 194.5 131.5t131.5 194.5q48 114 48 238t-48 238zM1126 107 q-43 -100 -120 -177t-177 -120q-104 -43 -217 -43t-217 43q-100 43 -177 120t-120 177q-43 104 -43 217t43 217q43 100 120 177t177 120q104 43 217 43t217 -43q100 -43 177 -120t120 -177q43 -104 43 -217t-43 -217zM666 522v-234v-54h120l-174 -161l-174 161h120v288h108z M720 576h-216v-288h-204l312 -288l312 288h-204v288z" />
<glyph unicode="&#xf011;" d="M1176 562q-47 110 -131.5 194.5t-194.5 131.5q-114 48 -238 48t-238 -48q-110 -47 -194.5 -131.5t-131.5 -194.5q-48 -114 -48 -238t48 -238q47 -110 131.5 -194.5t194.5 -131.5q114 -48 238 -48t238 48q110 47 194.5 131.5t131.5 194.5q48 114 48 238t-48 238zM1126 107 q-43 -100 -120 -177t-177 -120q-104 -43 -217 -43t-217 43q-100 43 -177 120t-120 177q-43 104 -43 217t43 217q43 100 120 177t177 120q104 43 217 43t217 -43q100 -43 177 -120t120 -177q43 -104 43 -217t-43 -217zM720 576h-216v-288h-204l312 -288l312 288h-204v288z " />
<glyph unicode="&#xf012;" horiz-adv-x="648" d="M144 648v-54h412l-556 -556l38 -38l556 556v-412h54v504h-504z" />
<glyph unicode="&#xf013;" d="M1176 562q-47 110 -131.5 194.5t-194.5 131.5q-114 48 -238 48t-238 -48q-110 -47 -194.5 -131.5t-131.5 -194.5q-48 -114 -48 -238t48 -238q47 -110 131.5 -194.5t194.5 -131.5q114 -48 238 -48t238 48q110 47 194.5 131.5t131.5 194.5q48 114 48 238t-48 238zM1126 107 q-43 -100 -120 -177t-177 -120q-104 -43 -217 -43t-217 43q-100 43 -177 120t-120 177q-43 104 -43 217t43 217q43 100 120 177t177 120q104 43 217 43t217 -43q100 -43 177 -120t120 -177q43 -104 43 -217t-43 -217zM642 636q-13 12 -30.5 12t-29.5 -12.5t-12 -30t12 -29.5 t29.5 -12t30 12t12.5 29.5t-12 30.5zM586 432h54v-432h-54v432z" />
<glyph unicode="&#xf014;" d="M1176 562q-47 110 -131.5 194.5t-194.5 131.5q-114 48 -238 48t-238 -48q-110 -47 -194.5 -131.5t-131.5 -194.5q-48 -114 -48 -238t48 -238q47 -110 131.5 -194.5t194.5 -131.5q114 -48 238 -48t238 48q110 47 194.5 131.5t131.5 194.5q48 114 48 238t-48 238zM1126 107 q-43 -100 -120 -177t-177 -120q-104 -43 -217 -43t-217 43q-100 43 -177 120t-120 177q-43 104 -43 217t43 217q43 100 120 177t177 120q104 43 217 43t217 -43q100 -43 177 -120t120 -177q43 -104 43 -217t-43 -217zM288 558h648v-54h-648v54zM288 351h648v-54h-648v54z M288 144h648v-54h-648v54z" />
<glyph unicode="&#xf015;" horiz-adv-x="1296" d="M0 618l648 -533l648 533l-13 16l-635 -521l-635 521z" />
<glyph unicode="&#xf016;" horiz-adv-x="576" d="M546 -288l-532 648l532 648l17 -13l-522 -635l522 -635z" />
<glyph unicode="&#xf017;" horiz-adv-x="576" d="M30 -288l533 648l-533 648l-16 -13l521 -635l-521 -635z" />
<glyph unicode="&#xf018;" horiz-adv-x="1296" d="M1296 102l-648 533l-648 -533l13 -16l635 521l635 -521z" />
<glyph unicode="&#xf019;" d="M1176 562q-47 110 -131.5 194.5t-194.5 131.5q-114 48 -238 48t-238 -48q-110 -47 -194.5 -131.5t-131.5 -194.5q-48 -114 -48 -238t48 -238q47 -110 131.5 -194.5t194.5 -131.5q114 -48 238 -48t238 48q110 47 194.5 131.5t131.5 194.5q48 114 48 238t-48 238zM1126 107 q-43 -100 -120 -177t-177 -120q-104 -43 -217 -43t-217 43q-100 43 -177 120t-120 177q-43 104 -43 217t43 217q43 100 120 177t177 120q104 43 217 43t217 -43q100 -43 177 -120t120 -177q43 -104 43 -217t-43 -217zM450 648h54v-648h-54v648zM720 648h54v-648h-54v648z " />
<glyph unicode="&#xf020;" d="M1176 562q-47 110 -131.5 194.5t-194.5 131.5q-114 48 -238 48t-238 -48q-110 -47 -194.5 -131.5t-131.5 -194.5q-48 -114 -48 -238t48 -238q47 -110 131.5 -194.5t194.5 -131.5q114 -48 238 -48t238 48q110 47 194.5 131.5t131.5 194.5q48 114 48 238t-48 238zM1126 107 q-43 -100 -120 -177t-177 -120q-104 -43 -217 -43t-217 43q-100 43 -177 120t-120 177q-43 104 -43 217t43 217q43 100 120 177t177 120q104 43 217 43t217 -43q100 -43 177 -120t120 -177q43 -104 43 -217t-43 -217zM486 546l329 -222l-329 -222v444zM432 648v-648l479 324 z" />
<glyph unicode="&#xf021;" d="M1176 562q-47 110 -131.5 194.5t-194.5 131.5q-114 48 -238 48t-238 -48q-110 -47 -194.5 -131.5t-131.5 -194.5q-48 -114 -48 -238t48 -238q47 -110 131.5 -194.5t194.5 -131.5q114 -48 238 -48t238 48q110 47 194.5 131.5t131.5 194.5q48 114 48 238t-48 238zM1126 107 q-43 -100 -120 -177t-177 -120q-104 -43 -217 -43t-217 43q-100 43 -177 120t-120 177q-43 104 -43 217t43 217q43 100 120 177t177 120q104 43 217 43t217 -43q100 -43 177 -120t120 -177q43 -104 43 -217t-43 -217zM432 648v-648l479 324z" />
<glyph unicode="&#xf022;" horiz-adv-x="648" d="M646 360h-54q2 -18 2 -36q0 -55 -21 -104t-58.5 -86.5t-86.5 -58.5t-104 -21t-104 21t-86.5 58.5t-58.5 86.5t-21 104t21 104.5t58.5 87t86.5 58t104 20.5q18 0 36 -2v0v-133l187 162l-187 162v-137v0q-18 2 -36 2q-138 -3 -229 -94.5t-95 -229.5q4 -137 95 -228.5 t229 -95.5q138 4 229.5 95.5t94.5 228.5q0 18 -2 36z" />
<glyph unicode="&#xf023;" d="M1176 562q-47 110 -131.5 194.5t-194.5 131.5q-114 48 -238 48t-238 -48q-110 -47 -194.5 -131.5t-131.5 -194.5q-48 -114 -48 -238t48 -238q47 -110 131.5 -194.5t194.5 -131.5q114 -48 238 -48t238 48q110 47 194.5 131.5t131.5 194.5q48 114 48 238t-48 238zM1126 107 q-43 -100 -120 -177t-177 -120q-104 -43 -217 -43t-217 43q-100 43 -177 120t-120 177q-43 104 -43 217t43 217q43 100 120 177t177 120q104 43 217 43t217 -43q100 -43 177 -120t120 -177q43 -104 43 -217t-43 -217zM936 351h-297v297h-54v-297h-297v-54h297v-297h54v297 h297v54z" />
<glyph unicode="&#xf024;" horiz-adv-x="504" d="M504 538l-39 39l-213 -214l-214 214l-38 -39l214 -213l-214 -214l38 -38l214 214l213 -214l39 38l-214 214z" />
<glyph unicode="&#xf025;" horiz-adv-x="936" d="M0 936h216v-216h-216v216zM720 936h216v-216h-216v216zM360 936h216v-216h-216v216zM0 216h216v-216h-216v216zM720 216h216v-216h-216v216zM360 216h216v-216h-216v216zM0 576h216v-216h-216v216zM720 576h216v-216h-216v216zM360 576h216v-216h-216v216z" />
<glyph unicode="&#xf026;" d="M553 144l-193 197l39 38l154 -158l311 311l38 -38zM1176 562q-47 110 -131.5 194.5t-194.5 131.5q-114 48 -238 48t-238 -48q-110 -47 -194.5 -131.5t-131.5 -194.5q-48 -114 -48 -238t48 -238q47 -110 131.5 -194.5t194.5 -131.5q114 -48 238 -48t238 48 q110 47 194.5 131.5t131.5 194.5q48 114 48 238t-48 238zM1126 107q-43 -100 -120 -177t-177 -120q-104 -43 -217 -43t-217 43q-100 43 -177 120t-120 177q-43 104 -43 217t43 217q43 100 120 177t177 120q104 43 217 43t217 -43q100 -43 177 -120t120 -177q43 -104 43 -217 t-43 -217z" />
<glyph unicode="&#xf027;" d="M1176 562q-47 110 -131.5 194.5t-194.5 131.5q-114 48 -238 48t-238 -48q-110 -47 -194.5 -131.5t-131.5 -194.5q-48 -114 -48 -238t48 -238q47 -110 131.5 -194.5t194.5 -131.5q114 -48 238 -48t238 48q110 47 194.5 131.5t131.5 194.5q48 114 48 238t-48 238zM1126 107 q-43 -100 -120 -177t-177 -120q-104 -43 -217 -43t-217 43q-100 43 -177 120t-120 177q-43 104 -43 217t43 217q43 100 120 177t177 120q104 43 217 43t217 -43q100 -43 177 -120t120 -177q43 -104 43 -217t-43 -217zM810 522v-396h-396v396h396zM864 576h-504v-504h504v504 z" />
<glyph unicode="&#xf028;" d="M1176 562q-47 110 -131.5 194.5t-194.5 131.5q-114 48 -238 48t-238 -48q-110 -47 -194.5 -131.5t-131.5 -194.5q-48 -114 -48 -238t48 -238q47 -110 131.5 -194.5t194.5 -131.5q114 -48 238 -48t238 48q110 47 194.5 131.5t131.5 194.5q48 114 48 238t-48 238zM1126 107 q-43 -100 -120 -177t-177 -120q-104 -43 -217 -43t-217 43q-100 43 -177 120t-120 177q-43 104 -43 217t43 217q43 100 120 177t177 120q104 43 217 43t217 -43q100 -43 177 -120t120 -177q43 -104 43 -217t-43 -217zM864 576h-504v-504h504v504z" />
<glyph unicode="&#xf029;" d="M1176 562q-47 110 -131.5 194.5t-194.5 131.5q-114 48 -238 48t-238 -48q-110 -47 -194.5 -131.5t-131.5 -194.5q-48 -114 -48 -238t48 -238q47 -110 131.5 -194.5t194.5 -131.5q114 -48 238 -48t238 48q110 47 194.5 131.5t131.5 194.5q48 114 48 238t-48 238zM1126 107 q-43 -100 -120 -177t-177 -120q-104 -43 -217 -43t-217 43q-100 43 -177 120t-120 177q-43 104 -43 217t43 217q43 100 120 177t177 120q104 43 217 43t217 -43q100 -43 177 -120t120 -177q43 -104 43 -217t-43 -217zM934 360h-54q2 -18 2 -36q0 -55 -20.5 -104t-58 -86.5 t-87 -58.5t-104.5 -21t-104 21t-86.5 58.5t-58.5 86.5t-21 104t21 104.5t58.5 87t86.5 58t104 20.5q18 0 36 -2v-133l187 162l-187 162v-137q-18 2 -36 2q-137 -3 -228.5 -94.5t-95.5 -229.5q4 -137 95.5 -228.5t228.5 -95.5q138 4 229.5 95.5t94.5 228.5q0 18 -2 36z" />
<glyph unicode="&#xf030;" horiz-adv-x="1152" d="M1088 864h-1024q-27 -1 -45 -19t-19 -45v-1024q1 -27 19 -45t45 -19h551v446h-150v174h150v128q2 112 62.5 171t161.5 59q49 0 85 -2.5t49 -4.5v-155h-92q-53 -1 -70.5 -24t-15.5 -61v-111h172l-22 -174h-150v-446h293q27 1 45 19t19 45v1024q-1 27 -19 45t-45 19z" />
<glyph unicode="&#xf031;" d="M448 -35l-62 -62q-42 -40 -97 -40t-97 40q-20 20 -30 44.5t-10 51.5t10 51.5t30 44.5l228 226q37 40 93.5 67.5t107.5 -15.5q23 -22 53.5 -22t53 22.5t22.5 53t-23 53.5q-85 82 -195.5 68t-218.5 -119l-228 -226q-41 -42 -63 -94t-22 -110t22 -110t64 -93.5t94.5 -62.5 t108.5 -21t108.5 21t95.5 63l62 61q22 24 22.5 54t-22.5 53t-53 23t-54 -22zM1139 844q-92 88 -200 92t-193 -77l-77 -77q-22 -23 -22.5 -53.5t22.5 -53.5t53 -23t54 22l77 77q44 40 93 31.5t86 -46.5q20 -20 30 -44.5t10 -51.5t-10 -51.5t-30 -44.5l-243 -241 q-82 -77 -126 -68t-60 32q-23 22 -53.5 22t-53 -23t-22.5 -53.5t23 -53.5q77 -76 170 -76q56 0 114 28t115 84l243 242q41 41 63 93t22 110t-22 110t-63 94z" />
<glyph unicode="&#xf032;" d="M2 693q-2 -5 -2 -11v-716q0 -4 1 -8l368 368zM613 158q23 0 40 16l544 544q-5 2 -11 2h-1148q-5 0 -8 -1l543 -545q18 -16 40 -16zM680 148q-28 -27 -66.5 -27t-66.5 27l-152 152l-369 -370q6 -2 12 -2h1148q7 0 14 3l-369 368zM1223 691l-365 -365l365 -366l1 6v716 q0 5 -1 9z" />
<glyph unicode="&#xf033;" d="M612 936q-260 -7 -432.5 -179.5t-179.5 -432.5q3 -191 102.5 -339t263.5 -222q-1 33 1 69.5t10 71.5l79 333q-1 1 -10 27t-10 70q1 70 34.5 113.5t83.5 45.5q42 -1 62.5 -27.5t20.5 -64.5q-2 -43 -20.5 -100.5t-33.5 -116.5q-10 -50 18.5 -83.5t77.5 -34.5q89 4 141 96.5 t53 228.5q0 103 -65.5 168t-188.5 67q-141 -4 -220.5 -89t-81.5 -204q1 -40 11.5 -69.5t29.5 -50.5q8 -10 10 -17t-1 -18l-13 -49q-3 -11 -11.5 -15t-19.5 0q-64 28 -94.5 90.5t-30.5 143.5q0 138 109.5 256.5t328.5 125.5q177 -5 281 -107t106 -243q-2 -184 -91.5 -300 t-238.5 -120q-51 1 -92 23t-58 53l-43 -168q-10 -36 -27 -69.5t-34 -61.5q82 -25 173 -25q260 7 432.5 179.5t179.5 432.5q-7 260 -179.5 432.5t-432.5 179.5z" />
<glyph unicode="&#xf034;" horiz-adv-x="1368" d="M374 864q-153 -4 -255 -108t-106 -260q0 -44 10 -86.5t29 -81.5q7 -12 19 -16t24.5 2t16.5 18.5t-2 25.5q-33 65 -33 138q3 128 87 213.5t210 88.5q127 -3 210.5 -88.5t87.5 -213.5q-4 -129 -87.5 -214.5t-210.5 -88.5q-34 0 -67 8q-13 3 -24 -4t-14 -20.5t4 -25 t20 -14.5q40 -9 81 -9q154 4 256 108t106 260q-4 156 -106 260t-256 108zM311 403q30 -22 69 -22q51 1 84.5 35.5t34.5 86.5q-1 52 -34.5 86t-84.5 35q-51 -1 -85 -35t-35 -86q0 -27 10 -49q-40 -41 -82 -104q-61 -88 -106.5 -239t-31.5 -359q2 -14 10.5 -26.5t21.5 -13.5h3 q14 1 22 16t8 29q-14 155 17.5 293.5t107.5 255.5q18 27 36 52.5t35 44.5zM1045 593q-40 -1 -77 17q-64 33 -86.5 97.5t7.5 130.5q32 66 95 89t129 -7q64 -33 86.5 -97.5t-6.5 -131.5q-8 -18 -20 -33q-5 -6 -4 -13.5t7 -12.5t13 -4t12 7q14 19 25 40q35 81 7.5 160 t-104.5 119q-80 36 -157 8t-116 -107q-36 -81 -8.5 -160t105.5 -119q44 -21 94 -20q7 1 12.5 6t5 13t-6 13t-13.5 5zM1343 452q-162 61 -242 198q-19 32 -29 60q18 10 28 30q11 26 2 52t-35 39t-51.5 3.5t-38 -36t-3.5 -52.5t36 -39q12 -6 26 -7q11 -30 32 -68 q29 -53 92 -112.5t171 -102.5q7 -2 13 0.5t10 8.5v2q3 8 0 14.5t-11 9.5z" />
<glyph unicode="&#xf035;" horiz-adv-x="1440" d="M1425 491q0 11 -2.5 12.5t-13.5 0.5h-421l-63 108l-172 324h-31l-156 -324l-62 -108h-489v-9l88 -61l247 -215l-56 -492q0 -11 6 -13t29 -2l407 246l407 -246q11 0 16 2t16 13l-78 492l234 197zM394 20l453 363l-421 71h640l-391 -347l406 -87h-687z" />
<glyph unicode="&#xf036;" d="M1157 609q-66 131 -182.5 217t-258.5 110v-390q0 -203 100.5 -370t263.5 -246q144 173 144 398q0 150 -67 281zM508 546v390q-142 -24 -258.5 -110t-183 -217t-66.5 -281q0 -225 144 -398q163 79 263.5 246t100.5 370zM715 -43q-77 100 -105 216q-27 -116 -105 -216 t-188 -169q136 -76 293 -76t293 76q-110 69 -188 169z" />
<glyph unicode="&#xf037;" horiz-adv-x="936" d="M650 754l-182 182l-182 -182l38 -38l117 117v-689h54v689l117 -117zM648 576v-54h234v-756h-828v756h234v54h-288v-864h936v864h-288z" />
<glyph unicode="&#xf038;" horiz-adv-x="720" d="M432 864h-168q-2 0 -4.5 -2t-3.5 -7q-4 -72 -51 -165t-174 -145v-149h116v-376q-2 -103 76.5 -202t258.5 -106h8q66 2 123.5 22.5t75.5 45.5l-55 164q-17 -8 -43 -13.5t-50 -6.5h-5q-63 2 -84 38.5t-20 75.5v358h229v175h-229v293z" />
<glyph unicode="&#xf039;" horiz-adv-x="1296" d="M1286 642zM893 767q-111 -3 -185 -78t-76 -188q0 -32 6 -61q-164 10 -302.5 83t-236.5 195q-35 -60 -36 -134q1 -70 32 -127.5t85 -93.5q-65 2 -119 33v-3q2 -99 60.5 -170t149.5 -92q-33 -9 -69 -9q-25 0 -49 5q26 -81 91.5 -131.5t153.5 -53.5q-68 -54 -150.5 -84 t-175.5 -30q-31 0 -62 4q87 -57 188.5 -88.5t212.5 -31.5q363 14 553.5 246.5t191.5 511.5q0 17 -1 34q78 57 131 138q-71 -32 -150 -42q40 25 70 63t45 85q-77 -47 -166 -65q-37 39 -86 61.5t-106 22.5z" />
<glyph unicode="&#xf040;" horiz-adv-x="1440" d="M1426 520q-15 163 -129.5 261t-289.5 79q-24 -2 -43 -8t-24 -32q-6 -57 37 -58.5t77 2.5q107 -2 189 -78t84 -202l-12 -96q-7 -49 52 -48q38 7 51 62t8 118zM1050 328q18 44 21.5 92t-21.5 80q-65 62 -169.5 33.5t-174.5 -41.5q31 97 -5 164t-145 44q-100 -26 -179.5 -79 t-148.5 -125q-77 -74 -138.5 -164.5t-75.5 -203.5q-8 -130 53.5 -205.5t144.5 -118.5q252 -130 547.5 -77.5t437.5 233.5q18 26 32.5 60t18.5 64q10 117 -54.5 162.5t-143.5 81.5zM944 -56q-68 -76 -190 -118t-261 -34q-128 7 -240.5 81t-91.5 223q15 67 58.5 112t91.5 72 q55 33 114.5 51.5t138.5 24.5q156 13 294.5 -47.5t148.5 -208.5q-1 -48 -20 -88t-43 -68zM1189 404q26 3 37.5 36t5.5 80q-10 67 -59.5 109.5t-126.5 38.5q-19 1 -40 -4.5t-23 -39.5q3 -43 40.5 -40t74.5 -8q18 -9 33.5 -32t17.5 -48v-67t40 -25zM544 244q-106 -13 -175 -90 t-34 -190q87 -159 278.5 -101t156.5 257q-20 60 -79.5 96t-146.5 28zM497 -60q-78 -10 -87.5 48.5t59.5 83.5q82 11 83.5 -49t-55.5 -83zM568 76q3 30 26 34t29 -18q1 -20 -19.5 -29t-35.5 13z" />
<glyph unicode="&#xf041;" horiz-adv-x="1152" d="M1019 377h-100q11 -43 11 -89q-3 -151 -103 -251t-251 -103q-151 3 -251 103t-103 251q0 46 11 89h-100v-488q0 -19 12.5 -31.5t31.5 -12.5h798q19 0 31.5 12.5t12.5 31.5v488zM1019 687q0 19 -12.5 31.5t-31.5 12.5h-133q-19 0 -31.5 -12.5t-12.5 -31.5v-133 q0 -19 12.5 -31.5t31.5 -12.5h133q19 0 31.5 12.5t12.5 31.5v133zM576 510q-94 -3 -156.5 -65.5t-65.5 -156.5q3 -94 65.5 -156.5t156.5 -65.5q94 3 156.5 65.5t65.5 156.5q-3 94 -65.5 156.5t-156.5 65.5zM1019 -288h-886q-57 1 -94.5 38.5t-38.5 94.5v886q1 57 38.5 94.5 t94.5 38.5h886q57 -1 94.5 -38.5t38.5 -94.5v-886q-1 -57 -38.5 -94.5t-94.5 -38.5z" />
<glyph unicode="&#xf042;" d="M553 144l-193 197l39 38l154 -158l311 311l38 -38z" />
<glyph unicode="&#xf043;" horiz-adv-x="1152" d="M1088 864h-1024q-27 -1 -45 -19t-19 -45v-1024q1 -27 19 -45t45 -19h1024q27 1 45 19t19 45v1024q-1 27 -19 45t-45 19zM341 -144h-171v576h171v-576zM256 507q-42 1 -70 29t-28 70t28 70t70 28t70 -28t29 -70q-1 -42 -29 -70t-70 -29zM981 -144h-171v293q3 51 -11.5 97 t-77.5 49q-64 -2 -84 -43.5t-18 -97.5v-298h-171v576h164v-76h2q18 34 58.5 61t103.5 28q126 -2 167 -75t38 -187v-327z" />
<glyph unicode="&#xf044;" d="M972 389q10 3 20 7.5t20 5.5q16 1 32.5 -0.5t30.5 -7.5q23 -13 24.5 -33.5t-19.5 -36.5q-17 -12 -37 -21t-40 -16q-43 -16 -51 -35.5t14 -60.5q37 -70 91.5 -118.5t133.5 -68.5q9 -2 18.5 -9t9.5 -12q-1 -11 -6 -23.5t-13 -17.5q-54 -25 -112 -39q-18 -3 -26 -11t-12 -25 q-7 -35 -20 -43.5t-46 -0.5q-55 11 -104 1t-96 -44q-92 -68 -172.5 -68t-172.5 69q-46 33 -94.5 43t-102.5 -1q-35 -8 -48 0.5t-20 44.5q-3 15 -11 23.5t-25 11.5q-55 11 -106 34q-10 6 -17.5 19t-9.5 25q0 6 12 14t24 11q84 24 139.5 79.5t90.5 133.5q8 18 2.5 31t-20.5 21 t-29 13l-30 11q-18 8 -35.5 18t-27.5 24.5t-1 36.5q9 19 30.5 27.5t43.5 1.5q23 -8 47 -15q16 -3 24 2.5t8 24.5q-2 44 -3 88t2 88q9 92 59 153t134 93q124 47 245.5 12t190.5 -151q22 -41 29 -84t8 -88q-3 -57 -7 -113q-1 -18 7.5 -23t23.5 -1z" />
<glyph unicode="&#xf045;" horiz-adv-x="648" d="M648 351h-297v297h-54v-297h-297v-54h297v-297h54v297h297v54z" />
<glyph unicode="&#xf046;" d="M1176 562q-47 110 -131.5 194.5t-194.5 131.5q-114 48 -238 48t-238 -48q-110 -47 -194.5 -131.5t-131.5 -194.5q-48 -114 -48 -238t48 -238q47 -110 131.5 -194.5t194.5 -131.5q114 -48 238 -48t238 48q110 47 194.5 131.5t131.5 194.5q48 114 48 238t-48 238zM1126 107 q-43 -100 -120 -177t-177 -120q-104 -43 -217 -43t-217 43q-100 43 -177 120t-120 177q-43 104 -43 217t43 217q43 100 120 177t177 120q104 43 217 43t217 -43q100 -43 177 -120t120 -177q43 -104 43 -217t-43 -217zM936 351h-297h-351v-54h648v54z" />
<glyph unicode="&#xf047;" horiz-adv-x="648" d="M648 351h-297h-351v-54h648v54z" />
<glyph unicode="&#xf048;" horiz-adv-x="1440" d="M396 882v0q48 0 94 -18q40 -16 79 -46q36 -29 62.5 -59t44.5 -53l45 -57l42 56q3 5 28.5 33.5t68.5 63.5q46 36 92 56q54 24 106 24q58 0 109.5 -16.5t92.5 -49.5q48 -37 76 -96q28 -61 28 -132q0 -64 -19 -117q-14 -42 -45 -87q-11 -15 -30.5 -35.5t-32.5 -33.5 l-516 -525h-1h-1l-516 525q-13 13 -32.5 33.5t-30.5 35.5q-31 45 -45 87q-19 53 -19 117q0 69 29 127q28 54 77 93q43 33 94.5 52t108.5 22h11zM396 936h-14q-66 -3 -125 -25t-108 -61q-58 -44 -92 -110.5t-35 -151.5q1 -79 22 -135.5t52 -99.5q10 -14 28 -33.5t41 -42.5 l555 -565l555 565q23 23 41 42.5t28 33.5q31 43 52 99.5t22 135.5q0 85 -33.5 155.5t-90.5 115.5q-49 38 -109.5 57.5t-126.5 19.5q-139 -11 -231.5 -92t-106.5 -106q-36 52 -116.5 121.5t-207.5 76.5v0z" />
<glyph unicode="&#xf049;" d="M1176 562q-47 110 -131.5 194.5t-194.5 131.5q-114 48 -238 48t-238 -48q-110 -47 -194.5 -131.5t-131.5 -194.5q-48 -114 -48 -238t48 -238q47 -110 131.5 -194.5t194.5 -131.5q114 -48 238 -48t238 48q110 47 194.5 131.5t131.5 194.5q48 114 48 238t-48 238zM864 111 l-39 -38l-213 214l-214 -214l-38 38l214 214l-214 213l38 39l214 -214l213 214l39 -39l-214 -213z" />
<glyph unicode="&#xf050;" d="M1176 562q-47 110 -131.5 194.5t-194.5 131.5q-114 48 -238 48t-238 -48q-110 -47 -194.5 -131.5t-131.5 -194.5q-48 -114 -48 -238t48 -238q47 -110 131.5 -194.5t194.5 -131.5q114 -48 238 -48t238 48q110 47 194.5 131.5t131.5 194.5q48 114 48 238t-48 238zM936 297 h-297h-351v54h648v-54z" />
<glyph unicode="&#xf051;" d="M48 86q47 -110 131.5 -194.5t194.5 -131.5q114 -48 238 -48t238 48q110 47 194.5 131.5t131.5 194.5q48 114 48 238t-48 238q-47 110 -131.5 194.5t-194.5 131.5q-114 48 -238 48t-238 -48q-110 -47 -194.5 -131.5t-131.5 -194.5q-48 -114 -48 -238t48 -238zM98 541 q43 100 120 177t177 120q104 43 217 43t217 -43q100 -43 177 -120t120 -177q43 -104 43 -217t-43 -217q-43 -100 -120 -177t-177 -120q-104 -43 -217 -43t-217 43q-100 43 -177 120t-120 177q-43 104 -43 217t43 217zM613 102q-23 0 -37.5 -14t-14.5 -37t14 -37t36.5 -14 t37 14.5t14.5 36.5t-14 36.5t-36 14.5zM637 214q1 -16 -4.5 -27t-20.5 -11v0q-15 0 -22 9.5t-7 25.5l-21 390q0 16 10.5 31t26.5 16h26q16 -1 26.5 -16t10.5 -31z" />
<glyph unicode="&#xf052;" d="M1176 562q-47 110 -131.5 194.5t-194.5 131.5q-114 48 -238 48t-238 -48q-110 -47 -194.5 -131.5t-131.5 -194.5q-48 -114 -48 -238t48 -238q47 -110 131.5 -194.5t194.5 -131.5q114 -48 238 -48t238 48q110 47 194.5 131.5t131.5 194.5q48 114 48 238t-48 238zM599 648 h26q16 -1 26.5 -16t10.5 -31l-25 -387q1 -16 -4.5 -27t-20.5 -11t-22 9.5t-7 25.5l-21 390q0 16 10.5 31t26.5 16zM648 15q-14 -15 -36.5 -15t-36.5 14t-14 37t14.5 37t37 14t36.5 -14.5t14 -36.5t-15 -36z" />
<glyph unicode="&#xf053;" d="M1176 562q-47 110 -131.5 194.5t-194.5 131.5q-114 48 -238 48t-238 -48q-110 -47 -194.5 -131.5t-131.5 -194.5q-48 -114 -48 -238t48 -238q47 -110 131.5 -194.5t194.5 -131.5q114 -48 238 -48t238 48q110 47 194.5 131.5t131.5 194.5q48 114 48 238t-48 238zM648 15 q-14 -15 -36.5 -15t-36.5 14t-14 37t14.5 37t37 14t36.5 -14.5t14 -36.5t-15 -36zM678 334q-23 -23 -29.5 -49.5t-4.5 -65.5q0 -21 -9.5 -31.5t-24 -11.5t-27 7.5t-14.5 29.5q-4 37 -0.5 62.5t9.5 40.5q24 48 65 87t47 87q-7 69 -68.5 79t-87.5 -66q-11 -32 -38.5 -28 t-29.5 42q3 25 15 51t38 48q52 41 132 28t108 -122q10 -59 -15 -105t-66 -83z" />
<glyph unicode="&#xf054;" d="M1179 554q-46 115 -134 203t-203 134q-110 45 -230 45t-230 -45q-115 -46 -203 -134t-134 -203q-45 -110 -45 -230t45 -230q46 -115 134 -203t203 -134q110 -45 230 -45t230 45q115 46 203 134t134 203q45 110 45 230t-45 230zM936 297h-297v-297h-54v297h-297v54h297 v297h54v-297h297v-54z" />
<glyph unicode="&#xf055;" d="M613 102q-23 0 -37.5 -14t-14.5 -37t14 -37t36.5 -14t37 14.5t14.5 36.5t-14 36.5t-36 14.5zM637 214q1 -16 -4.5 -27t-20.5 -11v0q-15 0 -22 9.5t-7 25.5l-21 390q0 16 10.5 31t26.5 16h26q16 -1 26.5 -16t10.5 -31z" />
<glyph unicode="&#xf056;" d="M648 15q-14 -15 -36.5 -15t-36.5 14t-14 37t14.5 37t37 14t36.5 -14.5t14 -36.5t-15 -36zM678 334q-23 -23 -29.5 -49.5t-4.5 -65.5q0 -21 -9.5 -31.5t-24 -11.5t-27 7.5t-14.5 29.5q-4 37 -0.5 62.5t9.5 40.5q24 48 65 87t47 87q-7 69 -68.5 79t-87.5 -66 q-11 -32 -38.5 -28t-29.5 42q3 25 15 51t38 48q52 41 132 28t108 -122q10 -59 -15 -105t-66 -83zM1176 562q-47 110 -131.5 194.5t-194.5 131.5q-114 48 -238 48t-238 -48q-110 -47 -194.5 -131.5t-131.5 -194.5q-48 -114 -48 -238t48 -238q47 -110 131.5 -194.5 t194.5 -131.5q114 -48 238 -48t238 48q110 47 194.5 131.5t131.5 194.5q48 114 48 238t-48 238zM1126 107q-43 -100 -120 -177t-177 -120q-104 -43 -217 -43t-217 43q-100 43 -177 120t-120 177q-43 104 -43 217t43 217q43 100 120 177t177 120q104 43 217 43t217 -43 q100 -43 177 -120t120 -177q43 -104 43 -217t-43 -217z" />
<glyph unicode="&#xf057;" d="M1176 562q-47 110 -131.5 194.5t-194.5 131.5q-114 48 -238 48t-238 -48q-110 -47 -194.5 -131.5t-131.5 -194.5q-48 -114 -48 -238t48 -238q47 -110 131.5 -194.5t194.5 -131.5q114 -48 238 -48t238 48q110 47 194.5 131.5t131.5 194.5q48 114 48 238t-48 238zM1126 107 q-43 -100 -120 -177t-177 -120q-104 -43 -217 -43t-217 43q-100 43 -177 120t-120 177q-43 104 -43 217t43 217q43 100 120 177t177 120q104 43 217 43t217 -43q100 -43 177 -120t120 -177q43 -104 43 -217t-43 -217z" />
<glyph unicode="&#xf058;" d="M1176 562q-47 110 -131.5 194.5t-194.5 131.5q-114 48 -238 48t-238 -48q-110 -47 -194.5 -131.5t-131.5 -194.5q-48 -114 -48 -238t48 -238q47 -110 131.5 -194.5t194.5 -131.5q114 -48 238 -48t238 48q110 47 194.5 131.5t131.5 194.5q48 114 48 238t-48 238zM553 144 l-193 197l39 38l154 -158l311 311l38 -38z" />
<glyph unicode="&#xf213;" horiz-adv-x="1296" d="M1245 612q-49 116 -139 206t-206 139q-120 51 -252 51t-252 -51q-116 -49 -206 -139t-139 -206q-51 -120 -51 -252t51 -252q49 -116 139 -206t206 -139q120 -51 252 -51t252 51q116 49 206 139t139 206q51 120 51 252t-51 252zM1192 130q-45 -106 -126.5 -187.5 t-187.5 -126.5q-110 -46 -230 -46t-230 46q-106 45 -187.5 126.5t-126.5 187.5q-46 110 -46 230t46 230q45 106 126.5 187.5t187.5 126.5q110 46 230 46t230 -46q106 -45 187.5 -126.5t126.5 -187.5q46 -110 46 -230t-46 -230zM679 690q-13 13 -31.5 13t-31 -13t-12.5 -31.5 t12.5 -31.5t31 -13t31.5 13t13 31.5t-13 31.5zM620 474h57v-457h-57v457z" />
<glyph unicode="&#xf226;" horiz-adv-x="1296" d="M586 169l-205 209l41 40l164 -167l329 329l40 -40zM1245 612q-49 116 -139 206t-206 139q-120 51 -252 51t-252 -51q-116 -49 -206 -139t-139 -206q-51 -120 -51 -252t51 -252q49 -116 139 -206t206 -139q120 -51 252 -51t252 51q116 49 206 139t139 206q51 120 51 252 t-51 252zM1192 130q-45 -106 -126.5 -187.5t-187.5 -126.5q-110 -46 -230 -46t-230 46q-106 45 -187.5 126.5t-126.5 187.5q-46 110 -46 230t46 230q45 106 126.5 187.5t187.5 126.5q110 46 230 46t230 -46q106 -45 187.5 -126.5t126.5 -187.5q46 -110 46 -230t-46 -230z " />
<glyph unicode="&#xf242;" horiz-adv-x="1296" d="M586 169l-205 209l41 40l164 -167l329 329l40 -40z" />
<glyph unicode="&#xf249;" horiz-adv-x="1296" d="M1245 612q-49 116 -139 206t-206 139q-120 51 -252 51t-252 -51q-116 -49 -206 -139t-139 -206q-51 -120 -51 -252t51 -252q49 -116 139 -206t206 -139q120 -51 252 -51t252 51q116 49 206 139t139 206q51 120 51 252t-51 252zM915 134l-41 -40l-226 227l-226 -227 l-41 40l227 227l-227 226l41 41l226 -227l226 227l41 -41l-227 -226z" />
<glyph unicode="&#xf250;" horiz-adv-x="1296" d="M1245 612q-49 116 -139 206t-206 139q-120 51 -252 51t-252 -51q-116 -49 -206 -139t-139 -206q-51 -120 -51 -252t51 -252q49 -116 139 -206t206 -139q120 -51 252 -51t252 51q116 49 206 139t139 206q51 120 51 252t-51 252zM991 331h-314h-372v58h686v-58z" />
<glyph unicode="&#xf251;" horiz-adv-x="1296" d="M51 108q49 -116 139 -206t206 -139q120 -51 252 -51t252 51q116 49 206 139t139 206q51 120 51 252t-51 252q-49 116 -139 206t-206 139q-120 51 -252 51t-252 -51q-116 -49 -206 -139t-139 -206q-51 -120 -51 -252t51 -252zM104 590q45 106 126.5 187.5t187.5 126.5 q110 46 230 46t230 -46q106 -45 187.5 -126.5t126.5 -187.5q46 -110 46 -230t-46 -230q-45 -106 -126.5 -187.5t-187.5 -126.5q-110 -46 -230 -46t-230 46q-106 45 -187.5 126.5t-126.5 187.5q-46 110 -46 230t46 230zM649 125q-24 0 -39.5 -15t-15.5 -39t15 -39t38.5 -15 t39 15.5t15.5 38.5t-15 38.5t-38 15.5zM675 243q0 -16 -5.5 -27.5t-21.5 -12.5v0q-16 1 -23.5 11t-7.5 26l-22 413q0 18 11.5 33.5t27.5 16.5h28q16 -1 27.5 -16.5t11.5 -33.5z" />
<glyph unicode="&#xf252;" horiz-adv-x="1296" d="M1245 612q-49 116 -139 206t-206 139q-120 51 -252 51t-252 -51q-116 -49 -206 -139t-139 -206q-51 -120 -51 -252t51 -252q49 -116 139 -206t206 -139q120 -51 252 -51t252 51q116 49 206 139t139 206q51 120 51 252t-51 252zM634 703h28q16 -1 27.5 -16.5t11.5 -33.5 l-26 -410q0 -16 -5.5 -27.5t-21.5 -11.5t-23.5 10t-7.5 26l-22 413q0 18 11.5 33.5t27.5 16.5zM686 32q-15 -15 -38.5 -15t-38.5 15t-15 39t15.5 39t39 15t38.5 -15.5t15 -38.5t-16 -39z" />
<glyph unicode="&#xf253;" horiz-adv-x="1296" d="M1245 612q-49 116 -139 206t-206 139q-120 51 -252 51t-252 -51q-116 -49 -206 -139t-139 -206q-51 -120 -51 -252t51 -252q49 -116 139 -206t206 -139q120 -51 252 -51t252 51q116 49 206 139t139 206q51 120 51 252t-51 252zM686 32q-15 -15 -38.5 -15t-38.5 15t-15 39 t15.5 39t39 15t38.5 -15.5t15 -38.5t-16 -39zM718 370q-25 -24 -31.5 -52t-4.5 -69q0 -22 -10 -33.5t-25.5 -12.5t-28.5 8t-16 31q-3 39 0.5 66.5t9.5 43.5q25 51 69 92t49 92q-6 73 -71.5 83.5t-93.5 -69.5q-11 -34 -40.5 -29.5t-31.5 43.5q4 27 16.5 54t40.5 51 q55 44 139.5 30t114.5 -129q10 -63 -16.5 -111.5t-69.5 -88.5z" />
<glyph unicode="&#xf254;" horiz-adv-x="1296" d="M1249 604q-50 121 -143 214t-214 143q-117 47 -244 47t-244 -47q-121 -50 -214 -143t-143 -214q-47 -117 -47 -244t47 -244q50 -121 143 -214t214 -143q117 -47 244 -47t244 47q121 50 214 143t143 214q47 117 47 244t-47 244zM991 331h-314v-314h-58v314h-314v58h314 v314h58v-314h314v-58z" />
<glyph unicode="&#xf255;" horiz-adv-x="1296" d="M649 125q-24 0 -39.5 -15t-15.5 -39t15 -39t38.5 -15t39 15.5t15.5 38.5t-15 38.5t-38 15.5zM675 243q0 -16 -5.5 -27.5t-21.5 -12.5v0q-16 1 -23.5 11t-7.5 26l-22 413q0 18 11.5 33.5t27.5 16.5h28q16 -1 27.5 -16.5t11.5 -33.5z" />
<glyph unicode="&#xf256;" horiz-adv-x="1296" d="M686 32q-15 -15 -38.5 -15t-38.5 15t-15 39t15.5 39t39 15t38.5 -15.5t15 -38.5t-16 -39zM718 370q-25 -24 -31.5 -52t-4.5 -69q0 -22 -10 -33.5t-25.5 -12.5t-28.5 8t-16 31q-3 39 0.5 66.5t9.5 43.5q25 51 69 92t49 92q-6 73 -71.5 83.5t-93.5 -69.5 q-11 -34 -40.5 -29.5t-31.5 43.5q4 27 16.5 54t40.5 51q55 44 139.5 30t114.5 -129q10 -63 -16.5 -111.5t-69.5 -88.5zM1245 612q-49 116 -139 206t-206 139q-120 51 -252 51t-252 -51q-116 -49 -206 -139t-139 -206q-51 -120 -51 -252t51 -252q49 -116 139 -206t206 -139 q120 -51 252 -51t252 51q116 49 206 139t139 206q51 120 51 252t-51 252zM1192 130q-45 -106 -126.5 -187.5t-187.5 -126.5q-110 -46 -230 -46t-230 46q-106 45 -187.5 126.5t-126.5 187.5q-46 110 -46 230t46 230q45 106 126.5 187.5t187.5 126.5q110 46 230 46t230 -46 q106 -45 187.5 -126.5t126.5 -187.5q46 -110 46 -230t-46 -230z" />
<glyph unicode="&#xf257;" horiz-adv-x="1296" d="M1245 612q-49 116 -139 206t-206 139q-120 51 -252 51t-252 -51q-116 -49 -206 -139t-139 -206q-51 -120 -51 -252t51 -252q49 -116 139 -206t206 -139q120 -51 252 -51t252 51q116 49 206 139t139 206q51 120 51 252t-51 252zM1192 130q-45 -106 -126.5 -187.5 t-187.5 -126.5q-110 -46 -230 -46t-230 46q-106 45 -187.5 126.5t-126.5 187.5q-46 110 -46 230t46 230q45 106 126.5 187.5t187.5 126.5q110 46 230 46t230 -46q106 -45 187.5 -126.5t126.5 -187.5q46 -110 46 -230t-46 -230z" />
<glyph unicode="&#xf258;" horiz-adv-x="1296" d="M1245 612q-49 116 -139 206t-206 139q-120 51 -252 51t-252 -51q-116 -49 -206 -139t-139 -206q-51 -120 -51 -252t51 -252q49 -116 139 -206t206 -139q120 -51 252 -51t252 51q116 49 206 139t139 206q51 120 51 252t-51 252zM586 169l-205 209l41 40l164 -167l329 329 l40 -40z" />
<glyph unicode="&#xf8ff;" horiz-adv-x="792" d="M752 630q-100 -76 -99 -182q0 -126 124 -193q-33 -102 -96 -178t-115 -76q-24 0 -67 17l-13 5q-42 18 -73 17.5t-67 -13.5l-17 -7l-21 -9q-26 -11 -52 -11q-60 0 -134 106q-106 152 -107 331q0 127 65.5 205.5t174.5 78.5q41 0 77 -16l33 -14q23 -10 37 -10q18 0 39 9 l39 16q40 15 88 15q114 1 184 -91zM571 936q1 -16 1 -25q1 -80 -54 -141t-128 -61q-2 18 -3 26q0 68 51 128t119 71z" />
</font>
</defs>
</svg>
